# xmcd
#
# Track frame offsets:
#	300
#	14328
#	24734
#	40298
#	51263
#	65611
#	79058
#	91623
#	113208
#	127250
#	142591
#	155501
#	171194
#	185436
#
# Disc length: 2658 seconds
#
# Revision: 1
# Processed by: cddbd v1.5.2PL0 Copyright (c) Steve Scherf et al.
# Submitted via: EasyCDDAExtractor 7.0.5.4
#
DISCID=b90a5e0e
DTITLE=Zeno Tornado and The Boney Google Brothers - Rambling Man
DYEAR=2008
DGENRE=Country
TTITLE0=Lover of Your Dreams
TTITLE1=Sober
TTITLE2=The Struggle in the Puddle at the Bottom of the Bottle
TTITLE3=She's My Neighbor
TTITLE4=Bone White Moon
TTITLE5=Horny
TTITLE6=Angel's Now Near Again
TTITLE7=Bullet in my Mind
TTITLE8=Blood
TTITLE9=Waiting Room
TTITLE10=Fenry Wolf
TTITLE11=Turn Around
TTITLE12=Jenna
TTITLE13=Nothing
EXTD=
EXTT0=
EXTT1=
EXTT2=
EXTT3=
EXTT4=
EXTT5=
EXTT6=
EXTT7=
EXTT8=
EXTT9=
EXTT10=
EXTT11=
EXTT12=
EXTT13=
PLAYORDER=
